<svg xmlns="http://www.w3.org/2000/svg" width="32" height="32" fill="currentColor" viewBox="0 0 24 24">
  <path d="M12 2.163c3.204 0 3.584.012 4.85.07 1.366.062 2.633.35 3.608 1.325.975.975 1.263 2.242 1.325 3.608.058 1.266.069 1.645.069 4.849s-.012 3.583-.07 4.849c-.062 1.366-.35 2.633-1.325 3.608-.975.975-2.242 1.263-3.608 1.325-1.266.058-1.645.069-4.849.069s-3.583-.012-4.849-.07c-1.366-.062-2.633-.35-3.608-1.325-.975-.975-1.263-2.242-1.325-3.608-.058-1.266-.069-1.645-.069-4.849s.012-3.583.07-4.849c.062-1.366.35-2.633 1.325-3.608.975-.975 2.242-1.263 3.608-1.325 1.266-.058 1.645-.069 4.849-.069m0-2.163C8.756 0 8.322.013 7.052.071c-1.683.077-3.181.51-4.388 1.717C1.455 3.955 1.022 5.453.945 7.136.887 8.406.875 8.84.875 12s.013 3.594.071 4.864c.077 1.683.51 3.181 1.717 4.388 1.207 1.207 2.705 1.64 4.388 1.717 1.27.058 1.704.071 4.864.071s3.594-.013 4.864-.071c1.683-.077 3.181-.51 4.388-1.717 1.207-1.207 1.64-2.705 1.717-4.388.058-1.27.071-1.704.071-4.864s-.013-3.594-.071-4.864c-.077-1.683-.51-3.181-1.717-4.388C20.233 1.455 18.735 1.022 17.052.945 15.782.887 15.348.875 12 .875z"/>
  <path d="M12 5.838a6.162 6.162 0 1 0 0 12.324 6.162 6.162 0 0 0 0-12.324zm0 10.162a3.999 3.999 0 1 1 0-7.998 3.999 3.999 0 0 1 0 7.998z"/>
  <circle cx="18.406" cy="5.594" r="1.44"/>
</svg>
