<svg xmlns="http://www.w3.org/2000/svg" width="32" height="32" fill="currentColor" viewBox="0 0 24 24">
  <path d="M23.954 4.569c-.885.392-1.83.656-2.825.775 1.014-.611 1.794-1.574 2.163-2.723-.949.555-2.004.959-3.127 1.184-.897-.959-2.178-1.558-3.594-1.558-2.717 0-4.92 2.203-4.92 4.917 0 .39.045.765.127 1.124-4.087-.205-7.715-2.162-10.141-5.144-.424.729-.666 1.571-.666 2.475 0 1.708.87 3.213 2.188 4.096-.807-.026-1.566-.248-2.228-.616v.061c0 2.385 1.693 4.374 3.946 4.828-.413.111-.849.171-1.296.171-.316 0-.624-.03-.927-.086.631 1.953 2.445 3.376 4.6 3.414-1.68 1.319-3.809 2.107-6.115 2.107-.398 0-.79-.023-1.175-.068 2.189 1.402 4.768 2.22 7.557 2.22 9.054 0 14.001-7.496 14.001-13.986 0-.21-.006-.423-.015-.634.962-.694 1.8-1.56 2.46-2.548l-.047-.02z"/>
</svg>
